<svg width="59" height="59" viewBox="0 0 59 59" fill="none" xmlns="http://www.w3.org/2000/svg">
<g id="Group" filter="url(#filter0_d_300_52)">
<path id="Vector" d="M50.2143 27.9999C50.2143 32.5913 48.8528 37.0795 46.302 40.8971C43.7512 44.7147 40.1256 47.6901 35.8837 49.4471C31.6419 51.2042 26.9742 51.6639 22.4711 50.7682C17.968 49.8724 13.8316 47.6615 10.585 44.4149C7.33845 41.1683 5.1275 37.0319 4.23177 32.5288C3.33604 28.0257 3.79576 23.3581 5.5528 19.1162C7.30983 14.8744 10.2853 11.2488 14.1028 8.69796C17.9204 6.14714 22.4086 4.78564 27 4.78564" stroke="white" stroke-opacity="0.67" stroke-width="3" stroke-linecap="square" stroke-linejoin="round"/>
<path id="Vector_2" d="M39.5 4.78564L21.6429 22.6428L18.0714 36.9285L32.3572 33.3571L50.2143 15.4999" stroke="white" stroke-opacity="0.67" stroke-width="3" stroke-linecap="square" stroke-linejoin="round"/>
</g>
<defs>
<filter id="filter0_d_300_52" x="0.285706" y="0.664307" width="58.0499" height="58.0498" filterUnits="userSpaceOnUse" color-interpolation-filters="sRGB">
<feFlood flood-opacity="0" result="BackgroundImageFix"/>
<feColorMatrix in="SourceAlpha" type="matrix" values="0 0 0 0 0 0 0 0 0 0 0 0 0 0 0 0 0 0 127 0" result="hardAlpha"/>
<feOffset dx="2" dy="2"/>
<feGaussianBlur stdDeviation="2"/>
<feComposite in2="hardAlpha" operator="out"/>
<feColorMatrix type="matrix" values="0 0 0 0 0 0 0 0 0 0 0 0 0 0 0 0 0 0 0.42 0"/>
<feBlend mode="normal" in2="BackgroundImageFix" result="effect1_dropShadow_300_52"/>
<feBlend mode="normal" in="SourceGraphic" in2="effect1_dropShadow_300_52" result="shape"/>
</filter>
</defs>
</svg>
